<?xml version="1.0" encoding="UTF-8"?>
<svg width="190px" height="190px" viewBox="0 0 190 190" version="1.1" xmlns="http://www.w3.org/2000/svg" xmlns:xlink="http://www.w3.org/1999/xlink">
    <!-- Generator: Sketch 51.3 (57544) - http://www.bohemiancoding.com/sketch -->
    <title>Group 21</title>
    <desc>Created with Sketch.</desc>
    <defs>
        <polygon id="path-1" points="0 0 112.272727 0 112.272727 25.9090909 0 25.9090909"></polygon>
    </defs>
    <g id="Page-1" stroke="none" stroke-width="1" fill="none" fill-rule="evenodd">
        <g id="Desktop_Notes" transform="translate(-410.000000, -3823.000000)">
            <g id="Group-21" transform="translate(410.000000, 3823.000000)">
                <g id="Group-12" fill="#F0F0F0">
                    <rect id="Rectangle-13-Copy-14" x="0" y="0" width="190" height="190"></rect>
                </g>
                <g id="Group-3" transform="translate(38.863636, 82.045455)">
                    <mask id="mask-2" fill="white">
                        <use xlink:href="#path-1"></use>
                    </mask>
                    <g id="Clip-2"></g>
                    <path d="M95.2342267,19.3197614 C95.3831081,23.1543068 98.656556,25.8715227 104.125033,25.8715227 C108.589532,25.8715227 112.272727,23.9361136 112.272727,19.6552841 C112.272727,16.6770341 110.598136,14.9275227 106.729162,14.1826364 L103.715933,13.587375 C101.78177,13.2149318 100.442485,12.8424886 100.442485,11.6888864 C100.442485,10.4232273 101.744226,9.86488636 103.381274,9.86488636 C105.762081,9.86488636 106.729162,11.0560568 106.80425,12.4706932 L111.565864,12.4706932 C111.305646,8.74820455 108.329313,6.25380682 103.530155,6.25380682 C98.5821154,6.25380682 95.6433268,8.97102273 95.6433268,12.5076136 C95.6433268,16.8260114 99.1400968,17.5333295 102.153326,18.0916705 L104.646118,18.5386023 C106.432047,18.8734773 107.212703,19.39425 107.212703,20.4370909 C107.212703,21.3672273 106.320062,22.2980114 104.199474,22.2980114 C101.112451,22.2980114 100.107178,20.6974773 100.070282,19.3197614 L95.2342267,19.3197614 Z M77.9355075,16.081125 C77.9355075,13.0659545 80.3538586,10.6460455 83.3670878,10.6460455 C86.3803171,10.6460455 88.7986682,13.0659545 88.7986682,16.081125 C88.7986682,19.0962955 86.3803171,21.5168523 83.3670878,21.5168523 C80.3538586,21.5168523 77.9355075,19.0962955 77.9355075,16.081125 Z M88.7611242,25.4997273 L93.4858417,25.4997273 L93.4858417,6.47727273 L88.7611242,6.47727273 L88.7611242,8.00331818 C87.1616205,6.88663636 85.2274575,6.25380682 83.1437658,6.25380682 C77.7121854,6.25380682 73.3227746,10.6460455 73.3227746,16.081125 C73.3227746,21.553125 77.7121854,25.9090909 83.1437658,25.9090909 C85.2274575,25.9090909 87.1616205,25.2762614 88.7611242,24.1595795 L88.7611242,25.4997273 Z M55.8382773,16.081125 C55.8382773,13.0659545 58.2566284,10.6460455 61.2698576,10.6460455 C64.2830869,10.6460455 66.701438,13.0659545 66.701438,16.081125 C66.701438,19.0962955 64.2830869,21.5168523 61.2698576,21.5168523 C58.2566284,21.5168523 55.8382773,19.0962955 55.8382773,16.081125 Z M66.6645413,0 L66.6645413,8.00331818 C65.0643903,6.88663636 63.1302273,6.25380682 61.0465356,6.25380682 C55.6149552,6.25380682 51.2255444,10.6460455 51.2255444,16.081125 C51.2255444,21.553125 55.6149552,25.9090909 61.0465356,25.9090909 C63.1302273,25.9090909 65.0643903,25.2762614 66.6645413,24.1595795 L66.6645413,25.4997273 L71.3886115,25.4997273 L71.3886115,0 L66.6645413,0 Z M44.5666638,25.4997273 L49.2913813,25.4997273 L49.2913813,6.47727273 L44.5666638,6.47727273 L44.5666638,25.4997273 Z M44.5666638,4.72776136 L49.2913813,4.72776136 L49.2913813,0 L44.5666638,0 L44.5666638,4.72776136 Z M26.7106104,16.081125 C26.7106104,13.0659545 29.1283142,10.6460455 32.1415434,10.6460455 C35.15542,10.6460455 37.5731238,13.0659545 37.5731238,16.081125 C37.5731238,19.0962955 35.15542,21.5168523 32.1415434,21.5168523 C29.1283142,21.5168523 26.7106104,19.0962955 26.7106104,16.081125 Z M37.5362271,0 L37.5362271,8.00331818 C35.9367235,6.88663636 34.0019131,6.25380682 31.9188687,6.25380682 C26.4872883,6.25380682 22.0972302,10.6460455 22.0972302,16.081125 C22.0972302,21.553125 26.4872883,25.9090909 31.9188687,25.9090909 C34.0019131,25.9090909 35.9367235,25.2762614 37.5362271,24.1595795 L37.5362271,25.4997273 L42.2609447,25.4997273 L42.2609447,0 L37.5362271,0 Z M4.61273288,16.081125 C4.61273288,13.0659545 7.031084,10.6460455 10.0449605,10.6460455 C13.0575425,10.6460455 15.4758936,13.0659545 15.4758936,16.081125 C15.4758936,19.0962955 13.0575425,21.5168523 10.0449605,21.5168523 C7.031084,21.5168523 4.61273288,19.0962955 4.61273288,16.081125 Z M15.4389969,25.4997273 L20.1630671,25.4997273 L20.1630671,6.47727273 L15.4389969,6.47727273 L15.4389969,8.00331818 C13.838846,6.88663636 11.9046829,6.25380682 9.8209912,6.25380682 C4.39005815,6.25380682 0,10.6460455 0,16.081125 C0,21.553125 4.39005815,25.9090909 9.8209912,25.9090909 C11.9046829,25.9090909 13.838846,25.2762614 15.4389969,24.1595795 L15.4389969,25.4997273 Z" id="Fill-1" fill="#333F48" mask="url(#mask-2)"></path>
                </g>
            </g>
        </g>
    </g>
</svg>