<?xml version="1.0" encoding="UTF-8"?>
<svg width="190px" height="190px" viewBox="0 0 190 190" version="1.1" xmlns="http://www.w3.org/2000/svg" xmlns:xlink="http://www.w3.org/1999/xlink">
    <!-- Generator: Sketch 51.3 (57544) - http://www.bohemiancoding.com/sketch -->
    <title>Group 4</title>
    <desc>Created with Sketch.</desc>
    <defs></defs>
    <g id="Page-1" stroke="none" stroke-width="1" fill="none" fill-rule="evenodd">
        <g id="Desktop_Notes-Copy" transform="translate(-980.000000, -3823.000000)">
            <g id="Group-4" transform="translate(980.000000, 3823.000000)">
                <rect id="Rectangle-13-Copy-22" fill="#F0F0F0" x="0" y="0" width="190" height="190"></rect>
                <g id="Group-26" transform="translate(43.181818, 73.409091)" fill="#333F48">
                    <polygon id="Fill-1" points="62.6442955 40.8140511 60.5013977 35.8643352 59.0019091 42.688142 60.1937273 42.688142 60.8587273 39.1914943 62.6432159 43.1814943 64.4352614 39.1904148 65.1002614 42.688142 66.2586136 42.688142 64.7958295 35.8610966"></polygon>
                    <path d="M67.9482102,42.6863068 L69.1594602,42.7111364 L69.8546875,41.0777841 L72.0699148,41.0777841 L72.7489489,42.7089773 L74.0152557,42.7089773 L70.9946875,36.0859659 L67.9482102,42.6863068 Z M70.9763352,38.463125 L71.6715625,40.1288636 L70.2649148,40.1288636 L70.9763352,38.463125 Z" id="Fill-2"></path>
                    <polygon id="Fill-3" points="76.0629375 36.2844943 76.0629375 42.676483 78.7564034 42.676483 78.7564034 41.6962557 77.0917443 41.6962557 77.0917443 36.2844943"></polygon>
                    <polygon id="Fill-4" points="81.5575 42.6765909 82.5852273 42.6765909 82.5852273 36.2846023 81.5575 36.2846023"></polygon>
                    <g id="Group-25">
                        <path d="M88.2648239,40.7696818 C88.2648239,41.1669545 88.1234034,41.6959318 86.8970398,41.6959318 L86.402608,41.6959318 L86.402608,39.8747386 L86.808517,39.8747386 C87.815733,39.8747386 88.2648239,40.1511023 88.2648239,40.7696818 Z M86.402608,38.9441705 L86.402608,37.2654773 L86.4889716,37.2654773 C87.3515284,37.2654773 87.7120966,37.3809886 87.7120966,38.0967273 C87.7120966,38.8157045 87.3148239,38.9441705 86.4814148,38.9441705 L86.402608,38.9441705 Z M88.3231193,39.2097386 C88.5973239,38.9258182 88.7398239,38.5458182 88.7398239,38.0967273 C88.7398239,36.9286591 87.960392,36.28525 86.545108,36.28525 L85.3738011,36.28525 L85.3738011,42.6772386 L86.9531761,42.6772386 C88.4181193,42.6772386 89.2925511,41.9809318 89.2925511,40.8171818 C89.2925511,40.097125 88.9136307,39.4871818 88.3231193,39.2097386 Z" id="Fill-5"></path>
                        <path d="M95.7109886,36.2849261 L95.7109886,40.1507784 C95.7120682,40.5771989 95.7131477,41.018733 95.4551364,41.3285625 C95.2165568,41.614642 94.80525,41.7992443 94.4068977,41.7992443 C93.9869545,41.7992443 93.5465,41.5941307 93.3349091,41.2972557 C93.1028068,40.9798693 93.1038864,40.5448125 93.1038864,40.1259489 L93.1038864,36.2849261 L92.0761591,36.2849261 L92.0761591,40.2414602 C92.0761591,40.9032216 92.1258182,41.5444716 92.7217273,42.113392 C93.1481477,42.5311761 93.7786023,42.7805511 94.4068977,42.7805511 C95.0848523,42.7805511 95.7239432,42.5085057 96.159,42.0378239 C96.6944545,41.4850966 96.7387159,40.8967443 96.7387159,40.2414602 L96.7387159,36.2849261 L95.7109886,36.2849261 Z" id="Fill-7"></path>
                        <path d="M22.1452557,9.51457386 C22.4496875,8.7221875 22.0534943,7.92872159 21.6573011,7.25724432 C21.2308807,6.82974432 19.7151989,5.46303977 18.8537216,5.12622159 C16.8716761,6.24786932 14.7946307,9.14860795 13.3933807,10.397642 C11.929517,12.746733 10.0683807,14.7903125 9.03309659,17.2905398 C10.433267,17.2300852 11.8075284,16.7421307 13.3016193,16.8641193 C16.6859943,15.0947443 20.5907102,13.295142 22.1150284,9.51457386 L22.1452557,9.51457386 Z M19.2488352,20.156733 C18.6086648,18.876392 17.4179261,18.114233 16.1678125,17.6575852 C15.313892,17.5960511 14.337983,17.4125284 13.5758239,17.7795739 C11.7762216,18.5719602 9.97769886,19.1808239 7.87258523,19.4874148 C7.23349432,21.2859375 6.44002841,22.8717898 5.70701705,24.6703125 C5.12946023,26.6232102 4.18377841,28.2684375 3.72605114,30.1608807 C8.36053977,29.0608239 12.9658807,27.5980398 16.7475284,24.6087784 C17.9371875,23.4201989 19.7357102,22.0794034 19.2488352,20.1880398 L19.2488352,20.156733 Z M22.5727557,11.5581534 C21.6875284,12.4725284 20.6500852,13.6308807 19.6763352,14.3628125 C18.4855966,15.1854261 17.2041761,15.9184375 15.9853693,16.558608 C16.2898011,17.4740625 17.5399148,17.4125284 18.1196307,18.0224716 C19.0955398,18.541733 19.7357102,19.5165625 20.0412216,20.5540057 C20.194517,21.8354261 19.4301989,22.688267 18.7608807,23.6339489 C15.4056534,26.9567898 11.0453693,29.0025284 6.47133523,30.0075852 C5.49434659,30.3130966 4.48928977,30.525767 3.42053977,30.6477557 C3.02542614,31.5621307 2.78036932,32.354517 2.5353125,33.361733 C2.14127841,34.8255966 1.83576705,36.1372443 1.22582386,37.5395739 C1.4071875,38.1505966 0.828551136,38.6061648 1.10383523,39.2171875 C0.828551136,39.4611648 0.4928125,39.4611648 0.188380682,39.3402557 C-0.360028409,38.8209943 0.463664773,38.4248011 0.463664773,37.9055398 L2.5353125,30.9219602 C2.38417614,30.5570739 2.0484375,30.5570739 1.80446023,30.2817898 C1.89622159,28.2392898 4.45798295,27.3540625 4.5184375,25.312642 L6.59224432,20.3089489 C6.62247159,19.9742898 6.2878125,19.8220739 6.16582386,19.6094034 C5.95315341,19.456108 5.61741477,19.4248011 5.43389205,19.1505966 C5.43389205,18.5719602 6.04383523,18.9670739 6.2878125,18.7230966 C6.74446023,18.541733 7.17088068,18.2362216 7.59838068,18.114233 C8.94133523,14.3325852 11.3184943,11.1921875 13.696733,7.89849432 C14.9176989,6.80059659 16.1386648,5.73400568 17.1134943,4.60372159 C17.1437216,3.50690341 15.8644602,4.02616477 15.313892,3.71957386 C13.3016193,3.47667614 11.2278125,3.20139205 9.33752841,3.68934659 C8.91002841,3.90417614 8.69627841,4.35974432 8.17809659,4.39105114 C7.69014205,4.23775568 7.23349432,3.87286932 7.04997159,3.38491477 C6.92690341,3.11071023 6.9884375,2.74474432 7.2021875,2.59144886 C10.7085511,2.65190341 14.6748011,2.47053977 17.8454261,3.59866477 C18.1509375,3.41946023 19.7918466,1.45792614 20.1081534,1.2528125 C18.852642,3.4496875 22.8275284,0.311448864 19.8641761,4.04127841 C21.2470739,5.12622159 23.0607102,6.34286932 23.2744602,7.80673295 C24.3108239,9.08707386 23.089858,10.4591761 22.5727557,11.5581534 Z" id="Fill-9"></path>
                        <path d="M29.2983239,15.2475 L29.6038352,15.0942045 L29.5725284,14.7897727 L29.2983239,15.2475 Z M29.6632102,14.5760227 C30.0907102,14.7293182 30.0907102,14.119375 30.2731534,13.8743182 C29.9698011,15.1255114 29.086733,16.4965341 28.6279261,17.7790341 C28.1399716,16.9240341 29.2983239,16.2223295 29.2983239,15.3381818 L29.146108,15.3694886 C28.4141761,17.0773295 27.3162784,18.4807386 26.3705966,20.0655114 C25.9139489,20.6452273 25.8524148,21.529375 25.3029261,21.9860227 L25.3029261,21.7733523 C25.2111648,21.6826705 25.0589489,21.8640341 25.0298011,21.9860227 L25.0298011,22.23 L25.3029261,22.23 L24.9369602,22.8410227 C24.8462784,22.6575 25.0902557,22.5668182 24.9369602,22.4448295 C24.7253693,23.3602841 23.9621307,24.3059659 23.6868466,25.3110227 C23.1999716,26.9875568 22.7411648,28.6964773 22.3762784,30.3740909 C22.1020739,30.2207955 21.8580966,30.2823295 21.5828125,30.4345455 C21.522358,30.1603409 21.0959375,29.9455114 21.5525852,29.7954545 C21.370142,29.6421591 21.6454261,29.7026136 21.6141193,29.5201705 C22.0394602,28.1167614 22.6807102,26.9573295 23.0477557,25.5247727 L23.1686648,25.7676705 C23.2906534,25.7072159 23.2604261,25.555 23.2604261,25.4017045 L23.1082102,25.3703977 C23.4137216,24.8846023 23.626392,24.426875 23.7473011,23.785625 C24.3885511,22.6888068 24.4803125,21.3458523 25.2111648,20.2490341 C25.547983,19.2418182 25.8524148,18.0521591 26.3414489,17.0460227 C26.7980966,16.589375 26.5228125,15.8282955 27.1025284,15.3381818 C28.3224148,12.35 29.9698011,9.42335227 31.4628125,6.58630682 C32.1958239,6.19011364 32.5002557,7.86664773 33.0184375,6.70829545 C33.0184375,6.40386364 33.2937216,6.25164773 33.5376989,6.40386364 C33.5679261,6.76982955 34.0245739,6.70829545 34.1778693,6.9825 C32.5607102,9.54534091 30.915483,11.9851136 29.6632102,14.5760227 Z M22.1020739,31.2571591 C22.222983,31.5928977 21.8580966,31.836875 21.6745739,32.1110795 C21.4305966,32.1726136 21.370142,32.32375 21.0333239,32.264375 C21.2481534,31.6242045 21.0959375,31.0444886 21.4003693,30.4647727 C21.7663352,30.5576136 21.370142,30.8911932 21.522358,31.1049432 C21.4003693,31.3186932 21.308608,31.8077273 21.522358,32.0495455 L22.1020739,31.2280114 L22.1020739,31.2571591 Z" id="Fill-11"></path>
                        <path d="M35.0619091,19.09025 C34.8179318,18.9380341 33.9942386,19.09025 33.7189545,19.09025 C32.2550909,20.1568409 32.4688409,21.8646818 32.0715682,23.4807614 C32.3177045,23.6955909 32.6221364,23.9093409 32.8974205,24.0000227 C34.5135,23.0543409 34.6354886,20.8585455 35.0316818,19.09025 L35.0619091,19.09025 Z M36.76975,19.5782045 C36.6769091,20.8283182 36.4955455,22.0784318 35.9471364,23.0845682 C35.6405455,23.2680909 35.6718523,23.7862727 35.5800909,24.03025 C34.572875,25.0666136 33.5375909,26.4084886 31.9204318,25.9507614 C31.1885,25.4336591 30.0301477,24.8841705 29.9988409,23.7247386 C29.7246364,22.3224091 30.0916818,20.8283182 30.8225341,19.6991136 C31.6775341,18.4479205 32.4083864,17.0455909 33.87225,16.5889432 C34.7563977,16.0405341 35.7031591,16.7120114 36.4955455,16.9862159 C36.9521932,17.2301932 37.2890114,17.5961591 37.5632159,18.0830341 C37.5923636,18.7847386 37.2274773,19.2122386 36.76975,19.5782045 Z" id="Fill-13"></path>
                        <path d="M55.342358,18.4482443 C55.7687784,18.0229034 56.1034375,17.382733 56.6529261,17.1992102 C56.5924716,16.741483 57.1419602,16.527733 57.4453125,16.1628466 C57.4755398,15.5215966 58.3909943,15.3089261 58.299233,14.6979034 C57.1700284,15.8875625 56.316108,17.1376761 55.342358,18.4482443 Z M56.3765625,17.9915966 C56.2858807,18.2668807 55.9512216,18.4190966 55.829233,18.6630739 C55.3715057,18.845517 55.3110511,19.5472216 54.8533239,19.5472216 L55.035767,19.6994375 L54.914858,19.8214261 C54.8533239,19.8214261 54.7615625,19.852733 54.7615625,19.7911989 C54.8533239,19.8214261 54.914858,20.0049489 54.7928693,20.0956307 C54.9440057,20.1269375 55.035767,20.066483 55.1577557,20.0049489 C55.1577557,19.9434148 55.1577557,19.852733 55.0962216,19.8214261 L55.7990057,19.1197216 C55.7374716,19.1197216 55.6457102,19.1510284 55.615483,19.059267 C55.9209943,18.997733 55.9209943,18.510858 56.2858807,18.6630739 C56.0742898,18.3262557 56.4391761,18.297108 56.4089489,17.9915966 L56.3765625,17.9915966 Z M54.335142,20.3093807 C54.1516193,20.1269375 54.0911648,20.4615966 54.0296307,20.5846648 L54.2131534,20.5846648 C54.1516193,20.4313693 54.335142,20.401142 54.3038352,20.2791534 L54.335142,20.3093807 Z M53.9389489,20.9495511 L53.8169602,21.408358 L54.059858,21.408358 C54.059858,21.2237557 54.2131534,20.828642 53.9389489,20.9495511 Z M52.8108239,21.743017 L52.7492898,21.956767 L52.9921875,21.743017 L52.8108239,21.743017 Z M52.444858,23.571767 L52.8108239,23.3288693 L53.0234943,22.657392 L52.444858,23.571767 Z M51.651392,24.0305739 C51.530483,24.3954602 51.4980966,24.5800625 51.4980966,24.792733 C51.6816193,24.5487557 52.0778125,24.305858 52.1091193,23.937733 L51.651392,24.0305739 Z M52.4135511,22.2914261 C51.8338352,22.9024489 51.1634375,23.3601761 50.889233,24.1827898 C50.7067898,24.9762557 49.7308807,25.0669375 49.8517898,25.8593239 C50.1573011,26.3181307 50.1259943,25.5851193 50.461733,25.7384148 L50.461733,25.433983 C50.5243466,25.1586989 50.7974716,24.792733 51.0716761,24.9762557 C50.7661648,24.5185284 51.4980966,24.3339261 51.4980966,23.8772784 C51.8953693,23.7563693 51.7129261,23.1766534 52.0778125,23.0546648 C52.1404261,23.1151193 52.1091193,23.1766534 52.1091193,23.2381875 L52.3530966,23.1464261 C52.1091193,22.9024489 52.3217898,22.5051761 52.4135511,22.2611989 L52.4135511,22.2914261 Z M49.4253693,26.4703466 C49.3940625,26.5912557 49.5171307,26.6538693 49.5775852,26.683017 C50.0655398,26.9280739 49.9133239,26.5912557 49.822642,26.3181307 C49.7308807,26.4390398 49.3638352,26.0730739 49.4253693,26.4703466 Z M59.9153125,14.8511989 C59.6119602,15.0638693 59.5180398,14.9418807 59.213608,15.0044943 C57.933267,16.8332443 56.6226989,18.631767 55.3110511,20.3709148 C55.3715057,20.5242102 55.187983,20.4615966 55.128608,20.5242102 C53.572983,23.084892 50.9799148,25.3422216 51.0112216,28.6348352 C50.737017,28.6963693 51.0716761,29.091483 50.737017,29.0018807 C50.9799148,28.7870511 50.737017,28.4534716 50.9496875,28.1458011 C50.737017,27.749608 51.4074148,27.1407443 50.8276989,26.9280739 L50.0655398,28.3304034 C49.4869034,28.7265966 49.7600284,27.4462557 49.2731534,27.9935852 C49.0291761,27.9935852 48.967642,27.690233 48.9374148,27.538017 C49.2418466,24.426767 49.9446307,21.408358 50.9496875,18.4482443 L50.8276989,18.2355739 C51.0112216,17.3525057 51.3469602,16.4672784 51.1332102,15.5215966 C50.5524148,15.4600625 50.1259943,16.1628466 49.5775852,16.4370511 C49.1511648,16.8332443 48.6027557,17.1376761 48.2659375,17.6871648 C46.6811648,18.8163693 45.856392,20.6753466 44.666733,22.170517 C43.4176989,24.2734716 42.0758239,26.3472784 41.3741193,28.6348352 C41.1916761,28.9403466 40.7339489,28.9403466 40.4284375,28.7870511 C39.6662784,28.1166534 39.9102557,27.0792102 39.9717898,26.255517 C40.367983,24.092108 41.2208239,22.0485284 41.5565625,19.9434148 C41.8620739,19.6994375 41.709858,19.3032443 41.9549148,19.0290398 C42.6253125,17.1376761 42.9912784,15.0638693 42.899517,13.0213693 C43.5094602,12.502108 43.2341761,11.0706307 44.4249148,11.2833011 L45.1859943,12.3185852 C45.2766761,12.6240966 45.4299716,12.8993807 45.369517,13.204892 C45.1546875,13.8148352 45.096392,14.5769943 44.9430966,15.1556307 C44.7595739,16.0095511 44.5469034,16.8634716 43.8441193,17.5047216 C42.6253125,19.7911989 42.3500284,22.536483 41.2208239,24.792733 C41.2834375,25.2191534 40.8861648,25.493358 41.0999148,25.8593239 C41.5565625,25.4015966 41.8620739,24.7625057 42.2291193,24.213017 L42.410483,24.1525625 C42.6846875,23.3601761 43.6919034,22.657392 43.8149716,21.8650057 L44.1496307,21.5897216 L44.0589489,21.4990398 C44.334233,21.529267 44.4249148,21.194608 44.607358,21.0715398 C44.5469034,20.7368807 44.607358,20.7973352 44.7898011,20.5846648 C45.4612784,20.187392 45.7657102,19.4565398 46.1910511,18.6943807 L46.3756534,18.845517 C46.497642,18.7548352 46.7103125,18.3262557 46.649858,18.1751193 C46.8031534,18.297108 46.8938352,18.297108 47.0158239,18.144892 C47.0158239,17.8706875 46.8031534,18.2355739 46.7729261,17.9915966 C46.8333807,17.7486989 47.077358,17.7486989 47.291108,17.7486989 C48.1741761,16.3452898 49.6078125,15.399608 50.9496875,14.8511989 C51.4689489,14.819892 51.5596307,15.399608 51.8338352,15.7051193 C52.0778125,16.2535284 51.2854261,16.6497216 51.865142,17.0156875 C51.803608,19.2719375 50.889233,21.408358 50.675483,23.571767 L51.9266761,22.0485284 C51.8953693,21.7743239 52.3530966,21.7117102 52.4135511,21.4990398 C54.0296307,18.6943807 56.4996307,16.2848352 58.4212216,13.5697784 C58.6349716,13.6313125 58.2387784,13.8148352 58.5432102,13.8742102 C58.6965057,13.8148352 58.788267,13.7230739 58.940483,13.7835284 C58.4816761,14.0890398 58.6349716,14.7292102 59.061392,14.7594375 L59.5493466,14.1797216 C59.854858,14.3319375 59.7037216,14.6676761 59.9466193,14.8511989 L59.9153125,14.8511989 Z" id="Fill-15"></path>
                        <path d="M76.7794318,3.62813636 C76.0798864,3.29239773 76.1392614,2.04336364 75.1633523,2.04336364 C74.3709659,1.98182955 73.4555114,2.07251136 72.8757955,2.65222727 C72.5109091,2.43955682 72.0521023,3.04842045 71.8696591,3.29239773 C71.0761932,3.71989773 70.8646023,4.57381818 69.9491477,5.54972727 C69.3694318,6.00745455 69.3392045,6.52671591 68.4842045,7.50046591 C67.5396023,8.690125 67.509375,9.117625 66.6554545,10.4897273 C65.8004545,12.4415455 65.4042614,14.1191591 64.6421023,16.04075 C64.5827273,16.1929659 64.3668182,16.4056364 64.3668182,16.6193864 C64.5827273,16.9238182 64.7036364,16.6798409 64.9789205,16.8029091 C66.5032386,17.0155795 68.4550568,17.3210909 69.1556818,17.3523977 C69.4309659,17.5046136 69.6447159,17.7485909 69.7040909,18.0227955 C69.7969318,18.3261477 69.4288068,18.4805227 69.3078977,18.6025114 C67.9055682,18.4481364 66.0444318,17.6568295 64.0332386,18.0227955 C63.5139773,18.7234205 63.5139773,19.6691023 62.9342614,20.3405795 C62.7226705,21.40825 62.0501136,22.4133068 61.655,23.4194432 C61.0439773,23.7854091 60.8302273,24.5184205 60.3746591,25.0668295 C60.15875,25.6465455 60.1900568,26.6224545 59.458125,26.9279659 C59.1839205,27.7808068 58.33,28.1456932 58.33,29.091375 C58.0557955,29.9452955 57.68875,30.7085341 57.415625,31.5926818 C56.8348295,31.6531364 57.4447727,32.2641591 56.8963636,32.3548409 L57.0194318,32.6603523 L55.6764773,36.442 C55.4616477,36.3210909 55.3428977,36.5035341 55.2500568,36.6859773 C55.64625,36.928875 55.3720455,37.2646136 55.3105114,37.6327386 C55.0363068,37.6921136 55.3428977,38.3322841 54.8527841,38.2102955 C54.8225568,38.425125 55.0060795,38.3635909 55.0676136,38.3948977 C54.4878977,39.1246705 54.7005682,40.0703523 54.1823864,40.8022841 C54.1230114,41.2610909 54.2439205,41.9617159 53.8164205,42.0837045 L53.6642045,42.0837045 L53.6642045,41.8386477 C53.4817614,41.6562045 53.3273864,41.9617159 53.1136364,41.9314886 C54.2741477,38.9422273 54.8840909,35.7716023 56.3479545,32.9054091 L56.8672159,30.7992159 C57.7200568,29.5199545 57.9338068,27.8121136 58.7564205,26.4702386 C59.0003977,25.5850114 59.2756818,24.7019432 59.8867045,23.9689318 C59.8553977,23.3600682 60.2828977,22.963875 60.6175568,22.6572841 C60.8302273,22.4748409 60.4642614,22.322625 60.4944886,22.0484205 C60.5247159,22.0775682 60.5560227,22.1391023 60.6175568,22.1077955 C60.6780114,22.0775682 60.6477841,22.0171136 60.6780114,21.9264318 C60.5247159,21.7429091 60.8302273,21.40825 60.9230682,21.1631932 C60.7082386,20.7054659 61.44125,20.6460909 61.1044318,20.2488182 C61.2566477,19.7306364 61.7456818,19.3344432 61.6841477,18.6942727 L62.0803409,17.9310341 C61.4110227,17.8705795 60.6477841,17.7788182 60.3411932,17.1991023 C60.3120455,16.741375 59.671875,16.8331364 59.7625568,16.4056364 C60.5560227,16.5891591 61.4714773,16.8029091 62.3847727,16.8935909 C63.5452841,14.3631364 64.0332386,11.4969432 65.52625,9.17807955 C66.1675,7.62353409 67.6011364,6.37234091 68.3330682,4.818875 C69.7353977,3.62813636 70.6184659,1.98182955 72.1147159,0.914159091 C72.7538068,0.761943182 73.36375,0.456431818 73.9434659,0.487738636 C74.7358523,0.36575 75.5293182,0.730636364 76.0172727,1.34057955 C76.1705682,2.16535227 77.3904545,2.622 76.7794318,3.65944318 L76.7794318,3.62813636 Z" id="Fill-17"></path>
                        <path d="M75.9259432,15.2780511 C75.4088409,15.1247557 75.10225,16.2528807 74.67475,15.5522557 C74.8895795,14.941233 73.9136705,15.0038466 74.4620795,14.454358 C74.8280455,14.0581648 74.5840682,13.2646989 75.2857727,13.1427102 C75.9550909,13.112483 76.0468523,13.8454943 76.5661136,14.0581648 C76.8111705,14.668108 76.3825909,15.0038466 75.9259432,15.2780511 Z M74.1565682,17.779358 C74.5527614,18.8157216 73.5163977,19.1503807 73.0888977,19.7603239 C72.8449205,20.2191307 72.2954318,20.6455511 72.2954318,21.3764034 C72.1151477,21.7736761 71.8700909,22.2616307 71.5635,22.8413466 C71.0161705,23.1155511 71.076625,23.8161761 70.7721932,24.3948125 C70.4666818,24.8525398 70.2831591,25.7075398 69.6742955,25.524017 C69.3385568,25.3707216 68.8819091,25.3113466 68.7286136,24.8838466 C68.9099773,24.4876534 69.0632727,24.120608 69.2165682,23.7859489 C69.3698636,23.419983 69.7358295,23.419983 69.7045227,22.8413466 C70.0100341,22.2303239 70.5282159,22.0478807 70.4969091,21.4077102 C70.8035,20.8582216 71.0161705,20.4620284 71.076625,20.0053807 C71.6865682,19.180608 72.145375,18.3266875 72.4185,17.3820852 C72.7229318,16.8023693 74.1263409,16.924358 74.1565682,17.7491307 L74.1565682,17.779358 Z" id="Fill-19"></path>
                        <path d="M86.5074318,15.2475 C85.5628295,15.948125 84.0676591,15.7052273 83.1835114,16.5278409 C82.3608977,16.8333523 81.7185682,17.5048295 80.8657273,17.6872727 C80.4695341,18.2054545 79.5853864,18.0834659 79.4633977,18.7851705 C78.8221477,19.059375 78.4561818,19.76 78.0912955,20.2188068 C78.0297614,21.1947159 79.0056705,21.1947159 79.5540795,21.7118182 C80.5926023,22.3228409 81.4443636,23.4811932 81.2921477,24.7928409 C81.1701591,25.7978977 81.0481705,26.5913636 80.7448182,27.538125 L80.7448182,27.6288068 C80.5310682,27.8425568 80.3475455,28.4211932 79.9502727,28.6338636 C79.7376023,29.0613636 79.279875,29.0311364 79.1276591,29.5201705 C78.1215227,30.0988068 77.1758409,30.9538068 76.4136818,31.7148864 C75.954875,31.8077273 75.7119773,32.1726136 75.3470909,32.3863636 C75.1635682,32.6303409 74.9185114,32.9660795 74.7965227,33.3320455 C74.3701023,32.9952273 73.63925,33.2089773 73.6079432,32.4165909 C74.3701023,31.9275568 74.7965227,30.9538068 75.6212955,30.4647727 C76.9329432,29.0915909 78.3028864,28.025 79.279875,26.3786932 C79.3403295,25.7676705 80.0420341,25.0670455 79.4018636,24.5186364 L79.3403295,24.5801705 C78.3341932,23.9691477 77.2676023,23.4509659 76.6878864,22.3228409 C76.4752159,21.5898295 76.9610114,20.7672159 76.2927727,20.2188068 C75.9861818,18.4192045 77.5720341,17.1680114 78.8221477,16.4058523 C81.1410114,14.8804545 83.4264091,12.9599432 85.8068068,11.5263068 C86.903625,10.7641477 87.5751023,11.8933523 88.3081136,12.4406818 C88.9158977,13.2654545 89.4977727,14.0891477 89.0065795,15.1255114 C88.1235114,15.948125 87.2091364,14.5155682 86.5074318,15.2475" id="Fill-21"></path>
                        <path d="M98.5526761,19.5778807 L97.8531307,21.0417443 C97.8531307,21.925892 97.1503466,22.5358352 97.089892,23.4502102 L96.6926193,23.7859489 C95.9919943,25.248733 95.5029602,26.6834489 94.8627898,28.1775398 C94.9243239,29.0616875 93.7972784,30.0397557 94.4979034,30.8602102 L94.8034148,30.7997557 C94.8940966,30.9832784 94.6490398,31.0448125 94.4979034,31.0750398 C93.9473352,30.556858 93.491767,30.8602102 92.788983,30.6788466 C92.423017,30.4348693 91.874608,30.2826534 91.7526193,29.7946989 C91.8130739,28.1170852 92.5450057,26.6229943 93.1851761,25.1580511 C93.7972784,23.7244148 94.3759148,22.291858 95.1089261,20.949983 C95.5947216,19.6685625 96.2046648,18.3579943 96.6926193,17.0776534 C96.6310852,16.8941307 96.6310852,16.6803807 96.448642,16.5594716 C96.0524489,16.6501534 95.7177898,16.924358 95.4425057,17.1985625 C94.4363693,18.5717443 93.3697784,19.4245852 92.636767,20.8582216 C92.6680739,21.011517 92.6680739,21.163733 92.850517,21.2554943 C92.7587557,21.5296989 92.4845511,21.5599261 92.5147784,21.8352102 C92.6065398,21.9863466 92.7587557,22.0489602 92.9714261,22.0165739 C92.4845511,22.6880511 92.1488125,23.419983 91.6306307,24.0914602 C91.4168807,24.9151534 90.8069375,25.5855511 90.3179034,26.2861761 C89.5881307,27.8115739 88.8561989,29.3974261 88.4578466,30.9832784 C87.8792102,31.2283352 87.6363125,30.616233 87.0868239,30.6788466 C86.628017,30.6788466 86.2944375,30.404642 85.8367102,30.2826534 C85.2256875,29.7946989 86.1724489,29.642483 86.141142,29.122142 C86.3246648,27.6895852 87.4527898,26.6532216 87.6363125,25.2195852 C88.2451761,25.0058352 88.0929602,24.3948125 88.2138693,23.847483 C89.7414261,19.3339034 92.0894375,15.0945284 94.4050625,10.856233 C96.448642,7.1048125 98.370233,3.26271023 101.296881,0.000323863636 C102.273869,0.212994318 103.584438,0.274528409 104.104778,1.28066477 C104.104778,1.58509659 104.104778,1.89060795 103.888869,2.10435795 C103.312392,2.47032386 102.730517,1.89060795 102.090347,2.10435795 C100.87046,3.62867614 99.557733,4.72657386 98.6152898,6.46464205 C98.004267,6.6179375 98.1867102,7.46969886 97.5789261,7.74498295 L97.5163125,7.99003977 C96.7239261,9.11816477 95.961767,10.428733 95.2902898,11.5881648 C94.9836989,12.3503239 94.4979034,13.2053239 94.6188125,13.9059489 C94.192392,14.9131648 93.6731307,15.7973125 93.4280739,16.924358 C93.764892,17.1985625 94.0099489,16.6501534 94.344608,16.5594716 C95.0765398,15.9797557 95.748017,15.0643011 96.8448352,15.6137898 C96.9981307,15.9797557 97.3943239,15.7660057 97.5789261,15.9797557 C98.7675057,16.496858 98.6746648,17.7167443 98.7361989,18.693733 L98.5526761,19.5778807 Z" id="Fill-23"></path>
                    </g>
                </g>
            </g>
        </g>
    </g>
</svg>