<?xml version="1.0" encoding="UTF-8"?>
<svg width="190px" height="190px" viewBox="0 0 190 190" version="1.1" xmlns="http://www.w3.org/2000/svg" xmlns:xlink="http://www.w3.org/1999/xlink">
    <!-- Generator: Sketch 51.3 (57544) - http://www.bohemiancoding.com/sketch -->
    <title>Converse</title>
    <desc>Created with Sketch.</desc>
    <defs>
        <polygon id="path-1" points="0 0.00618819444 10.3504743 0.00618819444 10.3504743 10.513716 0 10.513716"></polygon>
        <polygon id="path-3" points="0.126167188 0.128936111 9.49368046 0.128936111 9.49368046 10.6875 0.126167188 10.6875"></polygon>
    </defs>
    <g id="Page-1" stroke="none" stroke-width="1" fill="none" fill-rule="evenodd">
        <g id="D_Brands-Notes" transform="translate(-600.000000, -187.000000)">
            <g id="Converse" transform="translate(600.000000, 187.000000)">
                <g id="Group-7" fill="#F0F0F0">
                    <rect id="Rectangle-13-Copy-20" x="0" y="0" width="190" height="190"></rect>
                </g>
                <g id="Group-22" transform="translate(49.659091, 63.693182)">
                    <polygon id="Fill-1" fill="#333F48" points="19.4431152 29.8034172 28.5050905 26.8726516 34.0972489 34.5454545 34.0972489 25.0613798 43.1818182 22.1307494 34.0972489 19.1999838 34.0972489 9.71590909 28.5050905 17.388712 19.4318182 14.4579464 25.0518789 22.1307494"></polygon>
                    <polygon id="Fill-2" fill="#333F48" points="33.4659091 0 53.7958983 22.1306818 33.4659091 44.2613636 50.9200108 44.2613636 71.25 22.1306818 50.9200108 0"></polygon>
                    <g id="Group-21" transform="translate(0.000000, 50.738636)">
                        <g id="Group-5" transform="translate(0.000000, 0.131944)">
                            <mask id="mask-2" fill="white">
                                <use xlink:href="#path-1"></use>
                            </mask>
                            <g id="Clip-4"></g>
                            <path d="M5.64913789,2.72595903 C6.4306577,2.72595903 7.20932672,3.09777847 7.73183319,3.72068819 L7.9213419,3.94697292 L10.3504743,2.32379236 L10.1312361,2.05805625 C9.05540763,0.754049306 7.42177739,0.00618819444 5.64913789,0.00618819444 C2.53419029,0.00618819444 -1.35751225e-05,2.36297986 -1.35751225e-05,5.25995208 C-1.35751225e-05,8.15692431 2.53419029,10.513716 5.64913789,10.513716 C7.406709,10.513716 9.03165116,9.77641042 10.1073439,8.49034792 L10.3301116,8.22408403 L7.90233672,6.60182708 L7.71228501,6.82309792 C7.18190497,7.44033403 6.42984319,7.79434097 5.64913789,7.79434097 C4.20745989,7.79434097 2.98963565,6.63375764 2.98963565,5.25995208 C2.98963565,3.88641042 4.20745989,2.72595903 5.64913789,2.72595903" id="Fill-3" fill="#333F48" mask="url(#mask-2)"></path>
                        </g>
                        <polygon id="Fill-6" fill="#333F48" points="31.7569221 6.01310417 27.35003 0.421958333 24.5621071 0.421958333 24.5621071 10.3177917 27.2771316 10.3177917 27.2771316 4.77691667 31.3669088 10.3177917 34.4719466 10.3177917 34.4719466 0.421958333 31.7569221 0.421958333"></polygon>
                        <path d="M42.2097664,7.46849097 L42.2097664,7.45133819 C42.2097664,7.54858125 42.0962783,7.55451875 42.0501229,7.55451875 C42.0038318,7.55451875 41.9214308,7.54765764 41.890208,7.45041458 L39.6298143,0.421997917 L36.5080792,0.421997917 L39.8280111,10.3178312 L44.272099,10.3178312 L47.5917594,0.421997917 L44.4697528,0.421997917 L42.2097664,7.46849097 Z" id="Fill-8" fill="#333F48"></path>
                        <path d="M65.6472696,4.11640278 L63.2512605,4.11640278 L63.2512605,3.06084722 L65.6472696,3.06084722 C65.9782311,3.06084722 66.247833,3.27143056 66.247833,3.58849306 C66.247833,3.9056875 65.9782311,4.11640278 65.6472696,4.11640278 M69.1002378,3.344 C68.9746679,1.69904861 67.4960656,0.421958333 65.7344219,0.421958333 L60.536236,0.421958333 L60.536236,10.3177917 L63.2512605,10.3177917 L63.2512605,6.75529167 L64.4758723,6.75529167 C64.5984557,6.75529167 64.7131655,6.77415972 64.7823986,6.87061111 L66.5315531,10.3177917 L69.59125,10.3177917 L67.4852055,6.27844444 C68.5651065,5.66754167 69.1934989,4.5635625 69.1002378,3.344" id="Fill-10" fill="#333F48"></path>
                        <polygon id="Fill-12" fill="#333F48" points="90.6729536 3.06084722 90.6729536 0.421958333 82.5278801 0.421958333 82.5278801 10.3177917 90.6729536 10.3177917 90.6729536 7.67890278 85.2429046 7.67890278 85.2429046 6.49140278 90.1299487 6.49140278 90.1299487 4.11640278 85.2429046 4.11640278 85.2429046 3.06084722"></polygon>
                        <g id="Group-16" transform="translate(70.862139, 0.000000)">
                            <mask id="mask-4" fill="white">
                                <use xlink:href="#path-3"></use>
                            </mask>
                            <g id="Clip-15"></g>
                            <path d="M5.5247219,4.15403333 C4.06946877,3.83314444 3.65637779,3.62902639 3.65637779,3.16233889 L3.65637779,3.13331111 C3.65637779,2.76861667 3.94362738,2.47701944 4.64871924,2.47701944 C5.57902239,2.47701944 6.34004375,2.76597778 7.3702598,3.35788056 L9.00144652,1.48506111 C7.86113623,0.595491667 6.49384989,0.128936111 4.70817828,0.128936111 C2.18727803,0.128936111 0.669850844,1.49983889 0.669850844,3.39561667 L0.669850844,3.42477639 C0.669850844,5.52493611 2.44819189,6.13742222 4.68401456,6.63326944 C6.10926667,6.95415833 6.50715351,7.18756806 6.50715351,7.61031806 L6.50715351,7.63947778 C6.50715351,8.07700556 5.99890093,8.33970694 5.21873864,8.33970694 C4.00335792,8.33970694 2.80399585,7.91656111 1.76862126,7.11460278 L0.126167188,8.99573472 C1.41648258,10.1188458 3.28699871,10.6875264 5.14760499,10.6875264 C7.69837051,10.6875264 9.49368046,9.44804028 9.49368046,7.36239444 L9.49368046,7.33349861 C9.49368046,5.42281111 7.94055069,4.66452639 5.5247219,4.15403333" id="Fill-14" fill="#333F48" mask="url(#mask-4)"></path>
                        </g>
                        <path d="M16.9449294,7.90066181 C15.5203561,7.90066181 14.3656562,6.77821042 14.3656562,5.39371736 C14.3656562,4.00922431 15.5203561,2.88677292 16.9449294,2.88677292 C18.3695028,2.88677292 19.5242027,4.00922431 19.5242027,5.39371736 C19.5242027,6.77821042 18.3695028,7.90066181 16.9449294,7.90066181 M16.9447937,0.140085417 C13.9081745,0.140085417 11.4377737,2.49687708 11.4377737,5.39371736 C11.4377737,8.29068958 13.9081745,10.6473493 16.9447937,10.6473493 C19.9815486,10.6473493 22.4519494,8.29068958 22.4519494,5.39371736 C22.4519494,2.49687708 19.9815486,0.140085417 16.9447937,0.140085417" id="Fill-17" fill="#333F48"></path>
                        <polygon id="Fill-19" fill="#333F48" points="49.5403325 10.3177917 57.685406 10.3177917 57.685406 7.67890278 52.255357 7.67890278 52.255357 6.49140278 57.1424011 6.49140278 57.1424011 4.11640278 52.255357 4.11640278 52.255357 3.06084722 57.685406 3.06084722 57.685406 0.421958333 49.5403325 0.421958333"></polygon>
                    </g>
                </g>
            </g>
        </g>
    </g>
</svg>