<?xml version="1.0" encoding="UTF-8"?>
<svg width="190px" height="190px" viewBox="0 0 190 190" version="1.1" xmlns="http://www.w3.org/2000/svg" xmlns:xlink="http://www.w3.org/1999/xlink">
    <!-- Generator: Sketch 51.3 (57544) - http://www.bohemiancoding.com/sketch -->
    <title>Group 34</title>
    <desc>Created with Sketch.</desc>
    <defs>
        <polygon id="path-1" points="0 0.834307692 8.18419091 0.834307692 8.18419091 10.6903077 0 10.6903077"></polygon>
        <polygon id="path-3" points="0.579953846 0.783623077 10.5205692 0.783623077 10.5205692 11 0.579953846 11"></polygon>
        <polygon id="path-5" points="0.353269231 0.833630769 10.4157308 0.833630769 10.4157308 11 0.353269231 11"></polygon>
        <polygon id="path-7" points="0 57 107 57 107 0 0 0"></polygon>
    </defs>
    <g id="Page-1" stroke="none" stroke-width="1" fill="none" fill-rule="evenodd">
        <g id="Group-34">
            <g id="Group-4-Copy" fill="#F0F0F0">
                <rect id="Rectangle-13-Copy-22" x="0" y="0" width="190" height="190"></rect>
            </g>
            <g id="Group-22" transform="translate(41.000000, 66.000000)">
                <g id="Group-3" transform="translate(0.000000, 46.000000)">
                    <mask id="mask-2" fill="white">
                        <use xlink:href="#path-1"></use>
                    </mask>
                    <g id="Clip-2"></g>
                    <path d="M-8.18181818e-05,10.6903077 L2.20737273,10.6903077 L2.20737273,6.15915385 C2.20737273,5.35107692 2.20737273,4.35515385 2.60746364,3.77130769 C3.0051,3.13838462 3.71937273,2.93192308 4.11782727,2.93192308 C5.97755455,2.93192308 5.97755455,5.19876923 5.97755455,5.98653846 L5.97755455,10.6903077 L8.18419091,10.6903077 L8.18419091,5.54061538 C8.18419091,4.80107692 8.18419091,3.20607692 7.33819091,2.15938462 C6.57482727,1.19730769 5.36228182,0.834307692 4.56619091,0.834307692 C3.17119091,0.834307692 2.40700909,1.62630769 2.04291818,1.98761538 L2.04291818,1.16092308 L-8.18181818e-05,1.16092308 L-8.18181818e-05,10.6903077" id="Fill-1" fill="#333F48" mask="url(#mask-2)"></path>
                </g>
                <g id="Group-6" transform="translate(9.000000, 46.000000)">
                    <mask id="mask-4" fill="white">
                        <use xlink:href="#path-3"></use>
                    </mask>
                    <g id="Clip-5"></g>
                    <path d="M10.3834923,6.94785385 C10.4494923,6.63985385 10.5205692,6.24554615 10.5205692,5.79962308 C10.5205692,3.39739231 8.61418462,0.783623077 5.59256923,0.783623077 C2.65641538,0.783623077 0.579953846,3.25777692 0.579953846,5.95193077 C0.579953846,8.73239231 2.77741538,11.0000846 5.61033846,11.0000846 C7.84249231,11.0000846 9.66087692,9.40508462 10.2117231,7.68739231 L7.80610769,7.68739231 C7.37710769,8.4777 6.62318462,8.90585385 5.61033846,8.90585385 C3.9798,8.90585385 3.08626154,7.56639231 2.98303077,6.94785385 L10.3834923,6.94785385 Z M2.91364615,5.11085385 C3.34264615,3.34239231 4.76841538,2.8787 5.61033846,2.8787 C6.74333846,2.8787 7.92795385,3.5827 8.18433846,5.11085385 L2.91364615,5.11085385 Z" id="Fill-4" fill="#333F48" mask="url(#mask-4)"></path>
                </g>
                <polygon id="Fill-7" fill="#333F48" points="22.6 57 24.0722838 57 25.9640798 50.5144735 25.9995565 50.5144735 27.8709534 57 29.3467849 57 33 47 30.4447894 47 28.6079823 53.1081513 28.5725055 53.1081513 26.9512195 47 25.0461197 47 23.4070953 53.1081513 23.3725055 53.1081513 21.5543237 47 19 47"></polygon>
                <path d="M37,56.6906372 L39.0844216,56.6906372 L39.0844216,55.5419376 C39.6480748,56.1775683 40.4535344,57 42.2826691,57 C45.7522116,57 47,53.7931079 47,51.8879064 C47,49.369896 45.121156,46.8451235 42.2312747,46.8451235 C41.1705283,46.8451235 40.0583874,47.2415475 39.272306,48.0310143 L39.272306,44 L37,44 L37,56.6906372 Z M39.1341309,51.8050715 C39.1341309,50.4146294 40.2125706,48.9405072 41.9557671,48.9405072 C43.3931249,48.9405072 44.7268515,50.0528609 44.7268515,51.9090377 C44.7268515,53.756762 43.4782206,54.9088427 41.9911534,54.9088427 C40.6574269,54.9088427 39.1341309,53.9139792 39.1341309,51.8050715 Z" id="Fill-9" fill="#333F48"></path>
                <g id="Group-13" transform="translate(47.000000, 46.000000)">
                    <mask id="mask-6" fill="white">
                        <use xlink:href="#path-5"></use>
                    </mask>
                    <g id="Clip-12"></g>
                    <path d="M10.4157308,1.16109231 L8.31980769,1.16109231 L8.31980769,2.36686154 L8.28511538,2.36686154 C8.21573077,2.22724615 7.06496154,0.833630769 5.12642308,0.833630769 C2.48388462,0.833630769 0.353269231,2.94647692 0.353269231,5.8674 C0.353269231,9.04132308 2.5355,11.0001692 4.99019231,11.0001692 C6.19003846,11.0001692 7.60057692,10.3638615 8.31980769,9.50924615 L8.31980769,10.6904769 L10.4157308,10.6904769 L10.4157308,1.16109231 Z M8.25211538,5.90293846 C8.25211538,7.66970769 7.04888462,8.90593846 5.46911538,8.90593846 C3.83942308,8.90593846 2.63703846,7.5834 2.63703846,5.96978462 C2.63703846,4.54570769 3.59742308,2.93209231 5.46911538,2.93209231 C6.82634615,2.93209231 8.25211538,3.92632308 8.25211538,5.90293846 Z" id="Fill-11" fill="#333F48" mask="url(#mask-6)"></path>
                </g>
                <mask id="mask-8" fill="white">
                    <use xlink:href="#path-7"></use>
                </mask>
                <g id="Clip-15"></g>
                <polygon id="Fill-14" fill="#333F48" mask="url(#mask-8)" points="59 57 61 57 61 44 59 44"></polygon>
                <path d="M72,47.3220974 L69.9177529,47.3220974 L69.9177529,48.5081149 L69.8824321,48.5081149 C69.8151543,48.3707865 68.6697502,47 66.7447649,47 C64.114204,47 62,49.0782355 62,51.9513109 C62,55.0732418 64.1680262,57 66.6076865,57 C67.801867,57 69.1995627,56.3741157 69.9177529,55.5334998 L69.9177529,56.6953808 L72,56.6953808 L72,47.3220974 Z M69.8487932,51.9862672 C69.8487932,53.7240949 68.6554537,54.9400749 67.0853587,54.9400749 C65.4639643,54.9400749 64.2697839,53.639201 64.2697839,52.0520183 C64.2697839,50.6512692 65.2251282,49.0640866 67.0853587,49.0640866 C68.4334371,49.0640866 69.8487932,50.0420308 69.8487932,51.9862672 Z" id="Fill-16" fill="#333F48" mask="url(#mask-8)"></path>
                <path d="M74,57 L76.4263295,57 L76.4263295,52.4026442 C76.4263295,51.582761 76.4263295,50.5722871 76.8662535,49.9799107 C77.3034786,49.3377404 78.0906637,49.1282624 78.5269892,49.1282624 C80.5709716,49.1282624 80.5709716,51.428228 80.5709716,52.2275069 L80.5709716,57 L83,57 L83,51.7750687 C83,51.0247253 83,49.4064217 82.0670732,48.3444368 C81.2277089,47.3683036 79.8962415,47 79.019992,47 C77.4852059,47 76.6467413,47.8035714 76.2446022,48.170158 L76.2446022,47.3313874 L74,47.3313874 L74,57" id="Fill-17" fill="#333F48" mask="url(#mask-8)"></path>
                <path d="M90.380461,53.639201 C89.7690058,54.5855181 89.002752,54.9400749 88.2356381,54.9400749 C86.4889921,54.9400749 85.3202614,53.6059093 85.3202614,52.0012484 C85.3202614,50.0761548 86.7168903,49.0640866 88.129859,49.0640866 C89.5608875,49.0640866 90.1026832,49.9579692 90.380461,50.4307116 L93,50.4307116 C92.004128,47.542655 89.3501892,47 88.129859,47 C85.4587203,47 83,49.0973783 83,51.9662921 C83,55.0740741 85.6676987,57 88.1479188,57 C90.4165807,57 92.2122463,55.7332501 93,53.639201 L90.380461,53.639201" id="Fill-18" fill="#333F48" mask="url(#mask-8)"></path>
                <path d="M103.862955,53.033626 C103.931052,52.7321517 104,52.3461984 104,51.9097234 C104,49.5583899 102.083929,47 99.0451141,47 C96.0905686,47 94,49.4217326 94,52.058804 C94,54.7803545 96.2114402,57 99.0604358,57 C101.305073,57 103.136874,55.4387941 103.689309,53.7574954 L101.271876,53.7574954 C100.838611,54.5310585 100.081886,54.9501408 99.0604358,54.9501408 C97.4193054,54.9501408 96.5212802,53.6390591 96.4199864,53.033626 L103.862955,53.033626 Z M96.3493361,51.2355475 C96.7826013,49.5045552 98.2151856,49.0506874 99.0604358,49.0506874 C100.201907,49.0506874 101.392748,49.7397714 101.649813,51.2355475 L96.3493361,51.2355475 Z" id="Fill-19" fill="#333F48" mask="url(#mask-8)"></path>
                <path d="M39.3571817,24.133441 L36.2374957,29.4506171 L18.9676198,28.4911524 L20.6970298,25.5308109 L39.3571817,24.133441 Z M51.8411166,7.19342485 L53.4052853,13.0611835 L28.9011292,11.4708963 L30.6288089,8.51140847 L51.8411166,7.19342485 Z M35.5955636,0.000853616334 L49.9395442,0.0119506287 L51.0218313,4.02309378 L33.8704793,2.96119506 L35.5955636,0.000853616334 Z M34.3350582,32.7566732 L31.8443272,36.9820741 L14,37 L15.7285448,34.0413658 L34.3350582,32.7566732 Z M65.6625541,21.3566271 L61.3446526,28.7438228 L65.4575165,28.7438228 C67.3642797,28.7438228 70.7798428,27.8065521 71.8301197,25.1270504 C72.8042646,22.6387588 71.014295,21.3532126 69.7650364,21.3532126 L65.6625541,21.3566271 Z M69.7832043,14.2912447 L73.3700646,14.268197 C75.7595745,14.2562464 78.2494404,13.178129 79.1604302,10.9911639 C80.0004788,8.96297151 78.8723394,7.23525205 77.3739212,7.24122736 L73.9038545,7.23695928 L69.7832043,14.2912447 Z M53.5402467,13.0611835 L57.1643079,6.85880724 L69.4276328,6.08287 L69.8550107,5.32912677 L58.5113271,4.54721421 L61.1638388,0.000853616334 L82.1996585,0 C88.6691571,0 93.4542329,2.28171646 91.5950523,8.9937017 C91.0353083,11.0270158 88.404425,16.1452993 80.693454,18.28873 C82.3302942,18.4807936 86.4068224,20.2631445 85.7043307,24.8829161 C84.4568023,33.0767793 73.705738,36.9769524 67.7250421,36.9786596 L42.8904035,36.9906102 L41.6662338,32.2496251 L54.6744421,31.3447918 L55.1156622,30.5936094 L41.006999,29.7459684 L39.4878175,24.1257584 L59.5616041,22.9708155 L59.9984986,22.2256085 L23.9335094,19.9805975 L25.6603239,17.0211097 L64.4816414,14.5353789 L64.9211312,13.7901719 L53.5402467,13.0611835 Z" id="Fill-20" fill="#333F48" mask="url(#mask-8)"></path>
                <path d="M105.189102,55.612426 L105.483944,55.612426 L105.939345,56.3648915 L106.227376,56.3648915 L105.740837,55.6035503 C105.995783,55.5710059 106.18748,55.4378698 106.18748,55.1272189 C106.18748,54.7899408 105.988972,54.6331361 105.581252,54.6331361 L104.92637,54.6331361 L104.92637,56.3648915 L105.189102,56.3648915 L105.189102,55.612426 Z M105.189102,54.8530572 L105.544275,54.8530572 C105.845929,54.8530572 105.924749,54.9467456 105.924749,55.112426 C105.924749,55.3017751 105.820629,55.3964497 105.499513,55.3964497 L105.189102,55.3964497 L105.189102,54.8530572 Z M104,55.4960552 C104,56.3648915 104.691859,57 105.504379,57 C106.311061,57 107,56.3648915 107,55.4960552 C107,54.6331361 106.311061,54 105.504379,54 C104.691859,54 104,54.6331361 104,55.4960552 Z M106.712942,55.4960552 C106.712942,56.2278107 106.182614,56.7573964 105.504379,56.7573964 C104.817386,56.7573964 104.289977,56.2278107 104.289977,55.4960552 C104.289977,54.7790927 104.817386,54.2435897 105.504379,54.2435897 C106.182614,54.2435897 106.712942,54.7790927 106.712942,55.4960552 Z" id="Fill-21" fill="#333F48" mask="url(#mask-8)"></path>
            </g>
        </g>
    </g>
</svg>