<?xml version="1.0" encoding="UTF-8"?>
<svg width="190px" height="190px" viewBox="0 0 190 190" version="1.1" xmlns="http://www.w3.org/2000/svg" xmlns:xlink="http://www.w3.org/1999/xlink">
    <title>puma</title>
    <g id="Page-1" stroke="none" stroke-width="1" fill="none" fill-rule="evenodd">
        <g id="D_Brands-Comp" transform="translate(-992.000000, -187.000000)">
            <g id="puma" transform="translate(992.000000, 187.000000)">
                <g id="Group-4" fill="#F0F0F0">
                    <rect id="Rectangle-13-Copy-22" x="0" y="0" width="190" height="190"></rect>
                </g>
                <path d="M102.146591,50.3284091 C101.725568,50.3931818 101.315341,51.9477273 100.494886,52.7573864 C99.9011364,53.3403409 99.15625,53.31875 98.7568182,54.03125 C98.6056818,54.3011364 98.6596591,54.7761364 98.4869318,55.2079545 C98.1522727,56.1039773 96.9755682,56.1795455 96.9755682,57.1403409 C96.9755682,58.1011364 97.9579545,58.3926136 98.8107955,59.1375 C99.4801136,59.73125 99.5340909,60.1414773 100.34375,60.4221591 C101.153409,60.7028409 102.060227,59.8931818 102.977841,60.1738636 C103.895455,60.4545455 104.456818,60.5625 104.629545,61.3397727 C104.802273,62.1170455 104.629545,63.1642045 103.711932,63.0454545 C102.633523,62.750517 101.512832,62.6410032 100.397727,62.7215909 C98.4005682,62.9482955 96.0795455,63.6068182 95.9176136,65.8198864 C95.9503442,66.5352527 96.28263,67.203815 96.8331011,67.6618563 C97.3835722,68.1198976 98.1013972,68.3251214 98.8107955,68.2272727 C99.8255682,68.0221591 99.3505682,66.8130682 99.8903409,66.2193182 C100.624432,65.4744318 104.759091,68.8534091 108.613068,68.8534091 C110.134929,68.9391308 111.613017,68.3272342 112.628977,67.1909091 C112.736932,67.09375 112.877273,66.8886364 113.05,66.8670455 C113.246607,66.9170456 113.432942,67.0010792 113.600568,67.1153409 C116.688068,69.6090909 118.998295,74.6073864 130.430682,74.6721591 C132.277969,74.7759199 134.025841,75.5425303 135.353409,76.83125 C136.668089,78.2960194 137.644731,80.0318622 138.214205,81.9159091 C139.691675,85.2718994 141.82826,88.2968919 144.497159,90.8113636 C144.659091,90.9732955 147.217614,92.9704545 147.411932,93.1 C147.549579,93.3144322 147.606939,93.5706418 147.573864,93.8232955 C147.498295,95.7125 147.217614,101.207386 151.319886,101.444886 C152.323864,101.498864 152.064773,100.807955 152.064773,100.365341 C151.915914,99.3892572 152.02764,98.3911694 152.388636,97.4721591 C153.079545,96.1227273 150.93125,95.5073864 150.985227,92.5926136 C150.985227,90.4335227 149.203977,90.7897727 148.286364,89.1380682 C147.681225,88.3860283 147.336495,87.4579096 147.303977,86.4931818 C147.519886,79.8971591 145.900568,75.5573864 145.144886,74.4886364 C144.529545,73.6897727 144.065341,73.4090909 144.583523,72.9988636 C148.005682,70.7318182 148.772159,68.6806818 148.772159,68.6806818 C150.596591,64.3625 152.226705,60.5085227 154.482955,58.78125 C155.21466,58.1977749 155.994755,57.6777117 156.814773,57.2267045 C158.186388,56.6956948 159.473671,55.9684167 160.636364,55.0676136 C161.607955,54.1284091 162.363636,52.1636364 161.435227,50.9761364 C160.290909,49.5079545 158.29375,50.6630682 157.408523,51.18125 C151.136364,54.9164773 150.207955,61.5017045 148.027273,65.2801136 C146.289205,68.2920455 143.471591,70.5159091 140.945455,70.6778409 C138.869744,70.7607465 136.806291,70.3228196 134.943182,69.4039773 C131.903621,68.0517082 129.10645,66.2100249 126.663068,63.9522727 C125.335227,62.9267045 115.036364,52.8113636 106.680682,52.4011364 C106.680682,52.4011364 105.601136,50.3176136 105.385227,50.2420455 C104.769886,50.1772727 104.154545,51.4835227 103.711932,51.6346591 C103.269318,51.7857955 102.556818,50.2528409 102.146591,50.3284091 Z" id="Path" fill="#333F48" fill-rule="nonzero"></path>
                <path d="M65.3880682,110.696591 C64.5922473,110.679242 63.9529088,110.035132 63.9414773,109.239205 L63.9414773,83.2005682 L55.3590909,83.2005682 L55.3590909,111.905682 C55.3709441,113.304314 56.5081361,114.431818 57.9068182,114.431818 L72.9017045,114.431818 C74.3045577,114.425874 75.4386364,113.286957 75.4386364,111.884091 L75.4386364,83.2005682 L66.8022727,83.2005682 L66.8022727,109.239205 C66.7862759,110.020809 66.1688384,110.6571 65.3880682,110.696591 L65.3880682,110.696591 Z" id="Path" fill="#333F48" fill-rule="nonzero"></path>
                <path d="M94.1363636,83.2005682 L81.1818182,83.2005682 C80.4412557,83.2005682 79.7311813,83.4954868 79.2085385,84.0201554 C78.6858956,84.544824 78.3937205,85.256034 78.39657,85.9965909 L78.39657,114.431818 L86.9789773,114.431818 L86.9789773,88.35 C86.9789773,87.5451077 87.6314714,86.8926136 88.4363636,86.8926136 C89.2412559,86.8926136 89.89375,87.5451077 89.89375,88.35 L89.89375,114.431818 L98.44375,114.431818 L98.44375,88.3284091 C98.44375,87.5235168 99.0962441,86.8710227 99.9011364,86.8710227 C100.706029,86.8710227 101.358523,87.5235168 101.358523,88.3284091 L101.358523,114.431818 L109.994886,114.431818 L109.994886,85.9965909 C109.994886,84.4523902 108.743064,83.2005682 107.198864,83.2005682 L94.1363636,83.2005682 Z" id="Path" fill="#333F48" fill-rule="nonzero"></path>
                <path d="M49.6590909,106.605114 L41.0227273,106.605114 L41.0227273,114.431818 L32.3863636,114.431818 L32.3863636,83.2005682 L49.6590909,83.2005682 C50.3986886,83.2033956 51.1065441,83.5014099 51.6254528,84.0284266 C52.1443615,84.5554432 52.4313662,85.2678337 52.4229168,86.0073864 L52.4229168,103.776705 C52.428908,105.316189 51.1983055,106.575634 49.6590909,106.605114 Z M43.8835227,88.4039773 C43.889541,87.5913189 43.2387308,86.9260462 42.4261364,86.9142045 L41.0227273,86.9142045 L41.0227273,102.729545 L42.4261364,102.729545 C42.814537,102.729545 43.1868744,102.574529 43.4604998,102.298877 C43.7341252,102.023225 43.8863998,101.649754 43.8835227,101.261364 L43.8835227,88.4039773 Z" id="Shape" fill="#333F48" fill-rule="nonzero"></path>
                <path d="M143.223295,110.750568 C143.199439,112.855704 141.481935,114.547452 139.376679,114.539527 C137.271423,114.531547 135.566748,112.826872 135.558768,110.721617 C135.550844,108.616361 137.242592,106.898857 139.347727,106.875 C140.379131,106.863312 141.371702,107.267875 142.101062,107.997234 C142.830421,108.726593 143.234984,109.719165 143.223295,110.750568 L143.223295,110.750568 Z M139.358523,107.511932 C138.022091,107.49002 136.805018,108.278198 136.278333,109.506666 C135.751648,110.735134 136.019871,112.160107 136.957155,113.113012 C137.894439,114.065917 139.314784,114.357655 140.551789,113.851346 C141.788794,113.345037 142.596979,112.141157 142.597159,110.804545 C142.611632,109.936292 142.276819,109.098597 141.667882,108.47951 C141.058944,107.860423 140.226897,107.511811 139.358523,107.511932 L139.358523,107.511932 Z" id="Shape" fill="#333F48" fill-rule="nonzero"></path>
                <path d="M141.215341,112.974432 L140.135795,112.974432 L138.861932,111.193182 L138.861932,112.942045 L138.030682,112.942045 L138.030682,108.515909 L138.905114,108.515909 C140.114205,108.515909 140.740341,108.958523 140.740341,109.832955 C140.744322,110.397888 140.381745,110.900254 139.844318,111.074432 L139.779545,111.074432 L141.215341,112.974432 Z M139.05625,110.513068 C139.65,110.513068 139.963068,110.297159 139.963068,109.876136 C139.963068,109.455114 139.660795,109.303977 139.077841,109.303977 L138.905114,109.303977 L138.905114,110.513068 L139.05625,110.513068 Z" id="Shape" fill="#333F48" fill-rule="nonzero"></path>
                <path d="M124.320455,114.431818 L124.320455,106.615909 L121.405682,106.615909 L121.405682,114.431818 L112.83407,114.431818 L112.83407,85.9965909 C112.831221,85.256034 113.123396,84.544824 113.646038,84.0201554 C114.168681,83.4954868 114.878756,83.2005682 115.619318,83.2005682 L130.106818,83.2005682 C130.847381,83.2005682 131.557455,83.4954868 132.080098,84.0201554 C132.602741,84.544824 132.894916,85.256034 132.892066,85.9965909 L132.892066,114.431818 L124.320455,114.431818 Z M124.320455,102.71875 L124.320455,88.3392045 C124.320455,87.5343123 123.66796,86.8818182 122.863068,86.8818182 C122.058176,86.8818182 121.405682,87.5343123 121.405682,88.3392045 L121.405682,102.740341 L124.320455,102.71875 Z" id="Shape" fill="#333F48" fill-rule="nonzero"></path>
            </g>
        </g>
    </g>
</svg>