<?xml version="1.0" encoding="UTF-8"?>
<svg width="190px" height="190px" viewBox="0 0 190 190" version="1.1" xmlns="http://www.w3.org/2000/svg" xmlns:xlink="http://www.w3.org/1999/xlink">
    <!-- Generator: Sketch 51.3 (57544) - http://www.bohemiancoding.com/sketch -->
    <title>Skechers</title>
    <desc>Created with Sketch.</desc>
    <defs>
        <polygon id="path-1" points="0 0.0466252331 21.2029093 0.0466252331 21.2029093 12.9023815 0 12.9023815"></polygon>
        <polygon id="path-3" points="0.16430875 0.0251586752 23.6801474 0.0251586752 23.6801474 12.8813397 0.16430875 12.8813397"></polygon>
    </defs>
    <g id="Page-1" stroke="none" stroke-width="1" fill="none" fill-rule="evenodd">
        <g id="D_Brands-Notes" transform="translate(-790.000000, -187.000000)">
            <g id="Skechers" transform="translate(790.000000, 187.000000)">
                <g id="Group-5" fill="#F0F0F0">
                    <rect id="Rectangle-13-Copy-16" x="0" y="0" width="190" height="190"></rect>
                </g>
                <g id="Group-19" transform="translate(21.590909, 88.522727)">
                    <g id="Group-18">
                        <g id="Group-16">
                            <path d="M89.3922318,10.9713715 L93.3024227,2.53243303 C93.8612578,1.31468781 94.3059436,0.839613605 94.8545217,0.331865797 L87.1883241,0.335786629 C87.2819596,0.840593813 87.2773274,1.31468781 86.7079046,2.53439345 L85.3543261,5.47338414 L80.4323427,5.47338414 L81.7991559,2.53733407 C82.3712256,1.31272739 82.802015,0.838633397 83.3664748,0.334806421 L75.6939906,0.338400518 C75.7882879,0.843207701 75.7786927,1.31468781 75.2013291,2.53766081 L71.304042,10.9779062 C70.732634,12.1917306 70.2962199,12.6749732 69.7287823,13.1892558 L77.4029208,13.1863151 C77.3145792,12.6730128 77.3182187,12.1927108 77.8962441,10.9759458 L79.4615777,7.59912882 L84.3673486,7.59716841 L82.806978,10.9746389 C82.2402021,12.1907504 81.8021337,12.6707257 81.2432987,13.1863151 L88.9035407,13.1856617 C88.8118904,12.6713791 88.822809,12.1907504 89.3922318,10.9713715" id="Fill-8" fill="#333F48"></path>
                            <g id="Group-15">
                                <g id="Group-3" transform="translate(0.000000, 0.301643)">
                                    <mask id="mask-2" fill="white">
                                        <use xlink:href="#path-1"></use>
                                    </mask>
                                    <g id="Clip-2"></g>
                                    <path d="M18.9262108,6.61042556 C19.7851425,4.74084194 18.606262,4.01777508 15.8097707,4.01777508 L11.1332909,4.02169591 C10.1168663,4.01973549 9.90246421,3.93968516 10.1291084,3.45578909 L10.4652697,2.73598959 C10.6707383,2.26941052 10.9698424,2.17890464 11.9885832,2.17825117 L18.1136004,2.17563728 C19.3785065,2.17433033 19.9121956,2.3390053 20.5954368,2.59876045 L21.2029093,0.0466252331 L8.98496891,0.0485856493 C6.65433895,0.0466252331 4.84482515,1.09087362 3.91938903,3.10389437 L2.60518372,5.97623091 C1.59206775,8.11863913 2.31964516,8.75610115 4.93912236,8.75610115 L10.3127398,8.7583883 C11.3407448,8.75708135 11.5091563,8.85804279 11.2917764,9.32298818 L10.8818317,10.205829 C10.6684222,10.6838438 10.4030666,10.7625872 9.38134805,10.7645476 L3.0164519,10.7645476 C1.70555527,10.7632406 1.18807866,10.5243966 0.655713011,10.2842456 L-6.61734798e-05,12.9023815 L11.8883303,12.8997676 C15.0510918,12.8974805 16.5307308,11.7669738 17.4657621,9.75264607 L18.9262108,6.61042556 Z" id="Fill-1" fill="#333F48" mask="url(#mask-2)"></path>
                                </g>
                                <path d="M50.8180892,7.60383382 C52.340741,7.60285361 53.0090931,7.78778621 53.6400573,7.94854035 L54.9443365,5.14351143 C54.162166,5.29413675 53.3290419,5.47906935 51.8133384,5.47710893 L47.11072,5.47710893 L48.5139287,2.47309777 L53.8713336,2.47048388 C55.4204547,2.47309777 56.0891377,2.6456144 56.7194401,2.81192304 L57.328567,0.342125309 L42.3707137,0.340491628 C42.4706356,0.8479127 42.4474749,1.32494732 41.8876473,2.54465296 L37.9830811,10.981631 C37.6273986,11.7419458 37.322008,12.2111387 37.0100001,12.5839446 C36.610974,11.9007395 36.3171637,11.1231077 36.124268,10.5637356 L34.0225983,4.13553075 L38.3844232,1.61051462 C39.6291464,0.882219985 40.3117258,0.664613781 41.2414632,0.341145101 L35.2163679,0.343758989 C35.1677304,0.50876069 35.1306732,0.664613781 35.0568898,0.825041177 C34.8587002,1.25469907 34.537428,1.56640525 33.4938722,2.21791692 L27.1743049,6.11228379 L28.8207011,2.54726685 C29.3854917,1.32429385 29.8275306,0.850526589 30.3850421,0.341145101 L22.7085876,0.346699613 C22.8118182,0.852813741 22.8005688,1.32592753 22.2321386,2.54726685 L18.3282341,10.9865321 C17.7647669,12.2062377 17.3306689,12.6813119 16.7681943,13.2014757 L24.4290981,13.2024559 C24.3490282,12.6813119 24.3500208,12.2036238 24.9091867,10.9852251 L25.8094769,9.05780921 L27.9786435,7.74759768 L29.317333,13.1982083 L51.6356626,13.1926538 L53.3796646,10.7163214 C52.6279339,10.8741349 51.7898468,11.0567803 50.2609085,11.0577605 L44.5279691,11.0577605 L46.1359847,7.60481403 L50.8180892,7.60383382 Z" id="Fill-4" fill="#333F48"></path>
                                <path d="M70.5530061,10.0715731 C70.5530061,10.0715731 68.4688723,10.5535088 65.8507186,10.5512216 C65.8507186,10.5512216 63.2944371,10.5587366 62.765711,10.5512216 C62.0973588,10.5476275 61.8922211,10.3659623 62.1459964,9.73470826 C62.3977864,9.10247402 64.9434802,3.69924011 64.9434802,3.69924011 C65.0331453,3.50417869 65.3517706,2.97094547 66.1729835,2.97094547 L71.0135735,2.97159895 C72.2172691,2.96898506 73.297882,3.37087039 73.297882,3.37087039 L74.0674796,0.414235953 L74.0284372,0.416849841 L74.0506054,0.337452983 L63.6779124,0.3394134 C60.856937,0.3394134 58.8313668,1.3411861 57.5452852,4.11811572 L55.0958738,9.41581389 C53.8097922,12.1757532 54.9198524,13.1928825 57.7193214,13.1928825 L68.3692813,13.1879815 L70.5530061,10.0715731 Z" id="Fill-6" fill="#333F48"></path>
                                <path d="M103.224871,11.0482852 L97.5088062,11.0466515 L99.1012709,7.59599216 L103.799257,7.59468521 C105.305035,7.59207133 105.989268,7.77569698 106.611961,7.93579764 L107.914586,5.13305588 C107.129768,5.28662182 106.300284,5.46992074 104.79583,5.46894053 L100.084609,5.46796032 L101.484509,2.46035506 L106.852832,2.45970159 C108.402946,2.46035506 109.066004,2.63515885 109.69763,2.7988536 L110.299147,0.330036075 L95.3479112,0.333956908 C95.4359219,0.840724507 95.4259959,1.31351156 94.8555805,2.53713803 L90.9586243,10.9715022 C90.3855619,12.1902276 89.9418687,12.6708563 89.3932906,13.1841587 L104.611206,13.1818715 L106.352561,10.7052123 C105.615057,10.8669467 104.761089,11.0508991 103.224871,11.0482852" id="Fill-10" fill="#333F48"></path>
                                <g id="Group-14" transform="translate(105.877568, 0.301643)">
                                    <mask id="mask-4" fill="white">
                                        <use xlink:href="#path-3"></use>
                                    </mask>
                                    <g id="Clip-13"></g>
                                    <path d="M16.7308394,2.87243456 L16.0141806,4.44338144 C15.7269877,5.06548687 15.4374787,5.16481462 14.5854952,5.16546809 L10.8642296,5.1664483 L12.2767025,2.15851631 L15.98341,2.15622916 C16.8271218,2.15426874 17.0289509,2.24869546 16.7308394,2.87243456 Z M18.6300183,7.28794542 C20.0739236,7.21606349 21.3600052,7.11248816 22.2394507,5.22722121 L23.3276736,2.86067206 C24.3255697,0.706174606 23.1840772,0.0249299599 20.1639195,0.0249299599 L5.96375252,0.0265636401 C6.21653521,0.536271864 6.20793266,1.00677176 5.63718639,2.23203192 L1.73559803,10.6696634 C1.17080738,11.8874087 0.738363687,12.3654235 0.16430875,12.8813397 L7.83480766,12.8793793 C7.74547346,12.3644433 7.75209081,11.8841413 8.31721232,10.6673763 L9.8742743,7.29153951 L11.9051384,7.28794542 L12.4470992,12.8780723 L19.8155162,12.8793793 C19.4628115,12.3905822 19.4548707,11.7246941 19.304326,10.9049134 L18.6300183,7.28794542 Z" id="Fill-12" fill="#333F48" mask="url(#mask-4)"></path>
                                </g>
                                <path d="M136.735519,3.20629345 C136.957531,2.73938764 137.242738,2.64594113 138.275375,2.64332725 L144.395761,2.64496093 C145.668938,2.64659461 146.181452,2.81028936 146.874619,3.06841084 L147.724287,0.511047842 L135.254556,0.517582563 C132.930543,0.517582563 131.131617,1.5595438 130.195263,3.57354476 L128.884035,6.44588129 C127.875882,8.58926972 128.604783,9.22803868 131.218966,9.22803868 L136.592915,9.22607827 C137.612648,9.22542479 137.797272,9.32507929 137.57129,9.79492571 L137.162337,10.6754793 C136.94959,11.1528407 136.691182,11.232891 135.648619,11.2338712 L129.288355,11.2361584 C128.002604,11.2361584 127.458989,10.9947005 126.923646,10.7552029 L126.286726,13.3710517 L138.160564,13.369418 C141.327627,13.3661506 142.810575,12.2317231 143.749907,10.2170687 L145.205062,7.07942248 C146.071935,5.21114579 144.895701,4.48677199 142.084983,4.48873241 L137.41115,4.48873241 C136.38149,4.48873241 136.173706,4.41194944 136.402997,3.92445926 L136.735519,3.20629345 Z" id="Fill-15" fill="#333F48"></path>
                            </g>
                        </g>
                        <path d="M143.533801,12.38172 L143.64135,12.38172 C143.775372,12.38172 143.879611,12.3397491 143.879611,12.2291283 C143.879611,12.1393303 143.814751,12.0719818 143.659219,12.0719818 C143.603294,12.0719818 143.563584,12.0719818 143.533801,12.075886 L143.533801,12.38172 Z M143.533801,12.9933879 L143.305468,12.9933879 L143.305468,11.9317536 C143.391176,11.9190648 143.485818,11.901821 143.650946,11.901821 C143.836261,11.901821 143.948442,11.9317536 144.021906,11.987064 C144.082463,12.0342405 144.116217,12.1054933 144.116217,12.2161141 C144.116217,12.343328 144.025877,12.4324754 143.909393,12.4627334 L143.909393,12.4708673 C144.004698,12.4874604 144.064594,12.5730289 144.082463,12.7295247 C144.104304,12.8957813 144.125483,12.9589002 144.142691,12.9933879 L143.905753,12.9933879 C143.879611,12.9543452 143.86141,12.8619443 143.839901,12.7171612 C143.823355,12.6029615 143.753862,12.555785 143.637048,12.555785 L143.533801,12.555785 L143.533801,12.9933879 Z M143.697606,11.6730962 C143.292562,11.6730962 142.964292,12.0169967 142.964292,12.4409346 C142.964292,12.8694275 143.292562,13.2045434 143.702239,13.2045434 C144.112577,13.2094238 144.44515,12.8694275 144.44515,12.4409346 C144.44515,12.0169967 144.112577,11.6730962 143.702239,11.6730962 L143.697606,11.6730962 Z M143.70621,11.482438 C144.241635,11.482438 144.668519,11.9106055 144.668519,12.4373557 C144.668519,12.9719144 144.241635,13.3961777 143.702239,13.3961777 C143.166813,13.3961777 142.730994,12.9719144 142.730994,12.4373557 C142.730994,11.9106055 143.166813,11.482438 143.702239,11.482438 L143.70621,11.482438 Z" id="Fill-17" fill="#333F48"></path>
                    </g>
                </g>
            </g>
        </g>
    </g>
</svg>